<?xml version="1.0" encoding="utf-8"?>
<!-- Generator: Adobe Illustrator 24.2.1, SVG Export Plug-In . SVG Version: 6.00 Build 0)  -->
<svg version="1.1" id="Layer_1" xmlns="http://www.w3.org/2000/svg" xmlns:xlink="http://www.w3.org/1999/xlink" x="0px" y="0px"
	 viewBox="0 0 1292 222" style="enable-background:new 0 0 1292 222;" xml:space="preserve">
<style type="text/css">
	.st0{display:none;}
	.st1{display:inline;}
	.st2{fill:none;stroke:#000000;stroke-width:4;stroke-miterlimit:10;}
</style>
<path class="st0" d="M173.6-924.9c13.6,7.5,22.7,22.4,22.8,42.7c0.1,20.3-8.4,35.8-22.1,43.1c-6.4,3.3-13.9,5.9-22.6,5.9l-54.9,0.3
	l0-0.9c1.2,0,3.1-0.3,4.6-0.8c3.4-0.9,5.8-2.7,7.1-7c1.2-4.2,1.8-11.9,1.7-19.9l-0.2-40.5c0-8-0.7-15.7-1.9-19.9
	c-1.4-4.3-3.9-6.1-7.2-6.9c-1.5-0.4-3.4-0.7-4.6-0.7l0-0.9l53.8-0.3C159.6-930.6,167.1-928.2,173.6-924.9z M143.6-928.1
	c-3.2,0-6.6,0.8-8.7,3c-4.3,3.6-3.8,11.4-3.7,16.9l0.3,51.1c0,5.8-0.4,14.2,4.4,18.2c2,2.2,5.8,3.4,9.2,3.4l2.6,0
	c5.3,0,11.8-1.8,16.3-7.6c6.1-7.3,10.1-18.6,10-38.9c-0.1-20.5-4.1-31.3-10.3-38.5c-4.8-5.8-10.6-7.7-16.4-7.6L143.6-928.1z"/>
<path class="st0" d="M222.5-868.9c0.1,16.9,3.2,24.6,7.2,29c2.5,2.5,6.3,3.8,10.1,3.8c12.1-0.1,17.7-9.7,20.2-18.6l1.7,0.4
	c-2.7,12.5-11.8,22-26.6,22.1c-7.5,0-15.6-1.7-21.6-6.7c-7.1-5.9-11.1-14.2-11.1-26.3c-0.1-21.9,15-33.7,31.3-33.8
	c19.6-0.1,28.6,12.8,28.7,25.9c0,1,0,2.8-0.1,4L222.5-868.9z M240.4-894.8c-1.7-1.8-4-2.5-6.4-2.5c-2.6,0-4.6,0.8-6.6,2.7
	c-2.9,3.1-4.5,10.7-4.9,23.6l17.1-0.1c3.7,0,4.9-1.2,4.9-5.8C244.4-885.2,243.2-891.6,240.4-894.8z"/>
<path class="st0" d="M263.1-833.7l0-0.7c1.1-0.2,2.1-0.2,3.4-0.6c2.4-1.1,3.7-1.8,4.7-5.7c0.8-2.7,0.7-8.2,0.7-12.5l-0.3-63.6
	c0-2.7,0-9-0.5-11.4c-0.5-2.8-1.2-4-2.6-4.9c-1.5-1.2-3.5-1.2-5-1.3l0-0.7l26.1-0.1c0.6,0,0.9,0.3,0.9,1c0,2.2-0.1,5.3-0.1,9.3
	l0.4,71.6c0,4.3,0,9.8,0.7,12.4c1.1,3.8,2.5,4.6,4.9,5.6c1.1,0.4,2.6,0.4,3.7,0.6l0,0.7L263.1-833.7z"/>
<path class="st0" d="M348.8-832.8c-4.9,0-8.3-0.7-10.4-2.6c-1.7-1.2-2.6-3.7-2.6-7.5l-0.3,0c-2.1,7-8.5,10.3-17.5,10.3
	c-8.7,0-17.1-5-17.2-16.5c0-4.4,1-7,3.8-10.1c4.1-4.3,11.9-5.2,16.8-7.1c11.3-3.5,14.2-8.1,14.1-13.1c0-2.5,0.1-7.3,0.1-9.5
	c0-7.1-1.9-8.9-8-8.9c-3.4,0-4.9,1.1-5.6,2.3c-0.9,1.5-1,5.2-1,9.2c0,5.5-2.9,8-8.4,8c-4.7,0-8-2.2-8-7.1c0-2.5,0.9-4.7,2.4-6.5
	c3.5-4.5,13-7.6,21.4-7.7c15-0.1,25.7,4.8,25.8,17.2c0,4.9,0,24.3,0,33.5c0,6.7,0.4,9.6,1.6,11.1c0.9,0.9,2,1.3,3.7,1.3
	c1.5,0,3.2-0.5,4.4-1.1l0,0.6C362.6-835.2,356.3-832.8,348.8-832.8z M328.3-867.2c-3.5,1.9-5,3.6-6.2,6.1c-1.4,2.5-1.9,7.4-1.9,11.7
	c0,8.3,2.7,11.8,7.5,11.8c3.4,0,7.5-4.9,7.4-12.5l0-22.8C333.2-869.9,330.8-868.7,328.3-867.2z"/>
<path class="st0" d="M462.5-870.1c0.1,16.9,3.2,24.6,7.2,29c2.5,2.5,6.3,3.8,10.1,3.8c12.1-0.1,17.7-9.7,20.2-18.6l1.7,0.4
	c-2.7,12.5-11.8,22-26.6,22.1c-7.5,0-15.6-1.7-21.6-6.7c-7.1-5.9-11.1-14.2-11.1-26.3c-0.1-21.9,15-33.7,31.3-33.8
	c19.6-0.1,28.6,12.8,28.7,25.9c0,1,0,2.8-0.1,4L462.5-870.1z M480.4-896c-1.7-1.8-4-2.5-6.4-2.5c-2.6,0-4.6,0.8-6.6,2.7
	c-2.9,3.1-4.5,10.7-4.9,23.6l17.1-0.1c3.7,0,4.9-1.2,4.9-5.8C484.4-886.4,483.1-892.8,480.4-896z"/>
<path class="st0" d="M503-834.9l0-0.7c1.1-0.2,2.1-0.2,3.4-0.6c2.4-1,3.7-1.8,4.7-5.7c0.8-2.7,0.7-8.2,0.7-12.5l-0.3-63.6
	c0-2.7,0-9-0.5-11.4c-0.5-2.8-1.2-4-2.6-4.9c-1.5-1.2-3.5-1.2-5-1.3l0-0.7l26.1-0.1c0.6,0,0.9,0.3,0.9,1c0,2.2-0.1,5.3-0.1,9.3
	l0.4,71.6c0,4.3,0,9.8,0.7,12.4c1.1,3.8,2.5,4.6,4.9,5.6c1.1,0.4,2.6,0.4,3.7,0.6l0,0.7L503-834.9z"/>
<path class="st0" d="M587.8-834.8c-0.2,0-0.6-0.3-0.6-0.7c0-0.3,0.1-3.6,0.1-4l0-7.3l-0.2,0c-2.6,7.7-9.1,12.8-18.6,12.8
	c-14.2,0.1-27.6-10.1-27.7-33.1c-0.1-22.4,13.7-33.7,29.2-33.8c9.2,0,14.1,5,16.4,10.6l0.2,0l-0.2-30.1c0-2.2,0-7.4-0.4-9.5
	c-0.5-2.8-1.5-4.1-3.4-5.2c-1.5-0.9-3.5-1-4.7-1.2l0-0.6l27-0.1c0.3,0.1,0.8,0.3,0.8,0.9c0,5.6-0.3,24-0.3,31.6l0.3,52.3
	c0,2.7,0,6.7,0.4,9c0.3,2.7,1.4,4.6,3.4,5.8c1.5,1,4.3,1.2,5.5,1.3l0,0.6C612.4-835.3,588.8-834.8,587.8-834.8z M586.7-877.9
	c0-7-1.6-11.4-4-14.8c-2.2-3.2-5.2-5.2-9-5.1c-7.8,0-12.6,12.1-12.5,31c0.1,19.4,4.7,29.5,12.1,29.4c7.8,0,13.7-7.2,13.7-20.4
	L586.7-877.9z"/>
<path class="st0" d="M265.8-762.4c-2.4,1-4.6,2.4-6.1,5.4c-1.1,2.1-1.7,5.5-1.6,12.5l0.1,21.6c-2.7,1.1-7.3,2.3-13.3,3.6
	c-5.8,1.1-14,2-20.9,2c-26.1,0.1-47.5-18.3-47.6-50.6c-0.2-32.5,21.9-50.7,47.4-50.8c14.7-0.1,25.9,6.5,29.1,10.5l0.5,0l3.5-6.1
	l0.9,0l0.2,34.4l-0.9,0c-2.2-9-5.1-16.7-9.1-22.8c-5.7-8.6-13.1-13.1-23.6-13.1c-4.3,0-11.4,2.4-15.3,6.3c-7.1,7-10.1,19.3-10,41.4
	c0.1,21.2,5.1,33.5,11.7,40.6c4.3,5.5,10.4,6.9,15,6.9c6.7,0,10.1-1.4,11.7-4.2c1.8-3,2.4-8.3,2.4-12.3l0-7c0-6.5-0.7-10.1-2.4-13
	c-1.9-3.1-3.7-4.3-6.9-5.3c-1.4-0.4-3.1-0.7-4.4-0.9l0-0.7l44.5-0.2l0,0.7C269.6-763.3,267-762.9,265.8-762.4z"/>
<path class="st0" d="M314.4-766.1c-4.9,0-7.2-2.9-8.6-6.8c-1.1-3-1.7-4.1-3.4-4.1c-2.4,0-7.3,6.9-8.3,18.4c-0.1,1.2-0.3,5.5-0.3,9.2
	l0.1,11.9c0,3.7-0.1,7.7,0.5,10.2c0.8,3.9,2.2,5,4.9,6.2c1.1,0.4,2.6,0.6,4,0.7l0,0.6l-37,0.2l0-0.6c1.1-0.2,2.4-0.3,3.7-0.8
	c2.3-1,3.5-1.6,4.6-5.7c0.6-2.5,0.6-8.3,0.5-12.5l-0.1-26.5c0-2.7,0-8.9-0.4-11.3c-0.5-2.8-1.4-4-2.8-5c-1.4-1-3.5-1-4.9-1.2l0-0.7
	l26-0.1c0.6,0,0.9,0.4,0.9,0.9c0,0.9-0.1,14.1-0.1,15.6l0.2,0c1.8-7.1,5.4-12,8-14.1c2.4-1.9,5.8-3.7,10.4-3.8
	c2.6,0,6.4,0.7,8.3,2.6c1.7,1.5,2.5,3.8,2.5,7.8C323.1-769.5,319.4-766.1,314.4-766.1z"/>
<path class="st0" d="M355.8-718.7c-16.5,0.1-33.4-12.3-33.5-33.3c-0.1-21,16.8-33.4,33.1-33.5c16.5-0.1,33.5,12.3,33.6,33.2
	C389.2-731.5,372.5-718.8,355.8-718.7z M363.6-780.8c-2.3-2.7-5.4-3.2-8.1-3.2c-2.6,0-5.6,0.9-7.8,3.2c-4,4.3-5.6,14.9-5.5,28.8
	c0.1,14.1,2,24.4,5.6,28.7c2.3,2.7,5.4,3.4,8,3.4c2.8,0,5.6-0.6,8.1-3.5c3.5-4.3,5.4-14.7,5.4-28.8
	C369.2-766.2,367.3-776.6,363.6-780.8z"/>
<path class="st0" d="M438.5-719.9c-0.2,0-0.5-0.1-0.5-0.4c-0.2-0.6-0.2-1.8-0.2-2.8l-0.1-10.4l-0.5,0c-1.8,4.9-3.5,7.6-6.7,10.3
	c-3.5,3-8.4,4.2-12.8,4.2c-5.5,0-11.5-1-15.2-5c-3.2-3.2-4.9-9-5-15.1l-0.1-27.4c0-3.3,0-8.7-0.5-11c-0.8-3-1.5-4.3-3.2-5.3
	c-1.4-0.9-3.7-0.9-5-1l0-0.6l26.6-0.1c0.6,0,1.1,0.1,1.1,1.2c0,1.8-0.1,10.1-0.1,17.5l0.2,29.9c0,4.3,0.8,7.7,2.3,9.8
	c1.5,2.1,3.8,2.8,6.6,2.8c5,0,10.7-6.6,11.7-17.4c0.3-3.6,0.4-5.8,0.4-10.2l-0.1-17.3c0-3,0-6.5-0.3-8.7c-0.5-3-1.2-4.7-3.1-5.8
	c-1.2-0.9-4-1.2-5.4-1.2l0-0.6l26.4-0.1c0.8,0,1.1,0.4,1.1,1.2c0,1.8-0.1,9.8-0.1,17l0.1,29.1c0,2.7,0.2,7.1,0.4,9.5
	c0.5,2.8,1.4,4.4,3.1,5.5c1.4,1,3.8,1.2,5.2,1.3l0,0.6C463.4-720.6,439-719.9,438.5-719.9z"/>
<path class="st0" d="M508.2-719.5c-7.3,0-12.1-1.6-16.2-5.1l-0.5,0l0.1,16.2c0,4.1-0.1,8.7,0.7,11.9c0.9,4,2.2,4.7,5.4,6.1
	c1.2,0.4,2.1,0.4,3.2,0.6l0,0.7l-37,0.2l0-0.7c1.1-0.2,2-0.2,3.2-0.6c3.2-1.4,4.4-2.1,5.3-6.1c0.7-3.1,0.6-7.7,0.6-11.9l-0.3-58.4
	c0-2.7,0-7.9-0.4-10.2c-0.3-2.7-1.1-3.6-2.8-5c-1.8-1.5-5.5-2-6.9-2.2l0-0.6l27.2-0.1c0.6,0,1.2,0.3,1.2,1.3l-0.1,9.5l0.8,0
	c2.9-7.6,10.8-12.2,17.8-12.2c15.3-0.1,27.7,10.7,27.8,33.4C537.4-732.2,525-719.5,508.2-719.5z M505.2-782.7c-7.9,0-14,9.4-14,21.4
	l0.1,17.9c0,6.4,1.7,13.6,4.5,16.7c2.8,3.1,5.7,4.9,9.8,4.8c7.8,0,11.7-7.9,11.6-31.6C517.2-777.2,513-782.8,505.2-782.7z"/>
<g class="st0">
	<polygon class="st1" points="415.1,-834.4 415.4,-834.4 415.4,-834.4 	"/>
	<path class="st1" d="M441-835.2c-1.1-0.1-2.1-0.1-3.4-0.6c-2.4-1-3.8-1.8-4.8-5.6c-0.6-2.1-0.8-6.8-0.8-10.4l-0.2-36.8
		c0-3.9,0.1-7,0.1-9.2c0-0.7-0.3-1-0.9-1l-40.6,0.2l-0.1-19c0-5.9,1-10.4,2.8-13.2c2-3.3,5.8-4.5,10.7-4.5c3.2,0,6.4,0.9,7.2,3.2
		c0.8,2.4,1.3,5.8,2.2,8.9c1.1,4.6,4.2,7.2,8.7,7.2c5.2,0,8.4-3.6,8.4-7.9c-0.1-10.2-12.9-13.3-26.4-13.2c-9.8,0-16.9,2.8-21.8,6.3
		c-5.9,4.2-10.6,11.5-10.6,23.8l0,8.4l-8.6,0l0,2.7l8.7,0.6l0.2,41.4c0,4.2,0.1,9.9-0.7,12.6c-0.9,3.9-2.3,4.5-4.7,5.5
		c-1.2,0.5-2.4,0.6-3.5,0.8l0,0.6l20.4-0.1h7.2l-0.2-59.5l25,1.7v57.7l25.6-0.2L441-835.2z"/>
	<path class="st1" d="M408.9-870.8c-1.2,0-2.2,1-2.2,2.3c0,1.3,1,2.3,2.2,2.3s2.2-1,2.2-2.3C411.2-869.7,410.2-870.8,408.9-870.8z"
		/>
</g>
<g class="st0">
	<text transform="matrix(1 -5.030000e-03 4.879100e-03 0.97 152.8557 -1239.5713)" class="st1"><tspan x="0" y="0" style="font-family:'Austin-Semibold'; font-size:123.031px;">Del</tspan><tspan x="171" y="0" style="font-family:'Austin-Semibold'; font-size:123.031px;">a</tspan><tspan x="222.9" y="0" style="font-family:'Austin-Semibold'; font-size:123.031px;">field </tspan><tspan x="459.9" y="0" style="font-family:'Austin-Semibold'; font-size:123.031px; letter-spacing:-5;">G</tspan><tspan x="534.1" y="0" style="font-family:'Austin-Semibold'; font-size:123.031px;">roup</tspan></text>
</g>
<g>
	<path d="M107.8,36.2c19,10.5,31.7,31.3,31.9,59.6s-11.7,49.9-30.8,60.2c-8.9,4.6-19.4,8.2-31.5,8.2l-76.6,0.4l0-1.2
		c1.7,0,4.3-0.4,6.4-1.1c4.7-1.3,8.1-3.8,10-9.8c1.7-5.8,2.5-16.6,2.4-27.7l-0.3-56.5c-0.1-11.2-1-21.9-2.7-27.7
		c-2-6-5.4-8.5-10.1-9.7c-2.1-0.6-4.7-1-6.4-1l0-1.2l75.1-0.4C88.3,28.2,98.8,31.5,107.8,36.2z M65.9,31.6c-4.5,0-9.2,1.1-12.1,4.2
		c-5.9,5-5.3,16-5.2,23.6l0.4,71.4c0,8.1-0.5,19.9,6.1,25.4c2.8,3.1,8.1,4.7,12.8,4.7l3.6,0c7.5,0,16.4-2.6,22.8-10.7
		c8.5-10.2,14.2-25.9,14-54.3c-0.1-28.6-5.8-43.6-14.3-53.7c-6.7-8-14.8-10.7-22.9-10.6L65.9,31.6z"/>
	<path d="M176.1,114.3c0.1,23.6,4.4,34.3,10,40.5c3.4,3.5,8.8,5.3,14.1,5.3c16.9-0.1,24.7-13.6,28.2-26l2.3,0.6
		c-3.8,17.4-16.5,30.7-37.2,30.8c-10.5,0.1-21.8-2.4-30.1-9.4c-9.9-8.2-15.5-19.8-15.5-36.7c-0.2-30.6,20.9-47.1,43.7-47.2
		c27.3-0.1,40,17.8,40.1,36.2c0,1.4,0,3.9-0.2,5.6L176.1,114.3z M201.1,78.1c-2.4-2.5-5.6-3.5-9-3.5c-3.6,0-6.4,1.1-9.2,3.8
		c-4,4.4-6.3,14.9-6.9,32.9l23.9-0.1c5.1,0,6.8-1.7,6.8-8.1C206.7,91.6,204.9,82.7,201.1,78.1z"/>
	<path d="M232.7,163.4l0-1c1.5-0.2,3-0.2,4.7-0.9c3.4-1.5,5.1-2.5,6.6-7.9c1-3.7,1-11.4,1-17.4l-0.4-88.8c0-3.7-0.1-12.6-0.7-15.9
		c-0.7-3.9-1.7-5.6-3.7-6.8c-2.1-1.6-4.9-1.6-7-1.8l0-1l36.5-0.2c0.9,0,1.3,0.4,1.3,1.4c0,3.1-0.2,7.5-0.1,13l0.5,99.9
		c0,6,0.1,13.7,0.9,17.4c1.5,5.4,3.4,6.4,6.9,7.8c1.5,0.6,3.6,0.6,5.1,0.8l0,1L232.7,163.4z"/>
	<path d="M352.4,164.7c-6.8,0-11.5-1-14.5-3.7c-2.4-1.6-3.7-5.2-3.7-10.5l-0.4,0c-2.9,9.7-11.9,14.3-24.5,14.4
		c-12.2,0.1-23.9-6.9-24-23.1c0-6.2,1.4-9.7,5.3-14.1c5.7-6,16.6-7.3,23.4-9.8c15.8-4.8,19.8-11.3,19.7-18.3
		c0-3.5,0.2-10.1,0.1-13.2c0-9.9-2.6-12.4-11.2-12.4c-4.7,0-6.8,1.5-7.9,3.1c-1.3,2.1-1.5,7.2-1.4,12.8c0,7.7-4,11.2-11.7,11.2
		c-6.6,0-11.1-3-11.1-9.9c0-3.5,1.2-6.6,3.4-9.1c4.9-6.2,18.1-10.6,29.8-10.7c20.9-0.1,35.9,6.6,36,24c0,6.8,0,33.9,0,46.8
		c0,9.3,0.5,13.4,2.2,15.5c1.3,1.2,2.8,1.8,5.1,1.8c2.1,0,4.5-0.6,6.2-1.5l0,0.8C371.6,161.3,362.8,164.6,352.4,164.7z M323.8,116.6
		c-4.9,2.7-7,5-8.7,8.5c-1.9,3.5-2.7,10.4-2.7,16.4c0.1,11.6,3.7,16.5,10.5,16.5c4.7,0,10.4-6.9,10.4-17.4l0.1-31.9
		C330.6,112.9,327.2,114.5,323.8,116.6z"/>
	<path d="M511,112.6c0.1,23.6,4.4,34.3,10,40.5c3.4,3.5,8.8,5.3,14.1,5.3c16.8-0.1,24.7-13.6,28.2-26l2.3,0.6
		c-3.8,17.4-16.5,30.7-37.2,30.8c-10.5,0.1-21.8-2.4-30.1-9.4c-9.9-8.2-15.5-19.8-15.5-36.7c-0.2-30.6,20.9-47.1,43.7-47.2
		c27.3-0.1,40,17.8,40.1,36.2c0,1.4,0,3.9-0.2,5.6L511,112.6z M536,76.4c-2.4-2.5-5.6-3.5-9-3.5c-3.6,0-6.4,1.1-9.2,3.8
		c-4,4.4-6.3,14.9-6.9,32.9l23.9-0.1c5.1,0,6.8-1.7,6.8-8.1C541.6,89.9,539.8,81,536,76.4z"/>
	<path d="M567.6,161.7l0-1c1.5-0.2,3-0.2,4.7-0.9c3.4-1.5,5.1-2.5,6.6-7.9c1-3.7,1-11.4,1-17.4l-0.4-88.8c0-3.7-0.1-12.6-0.7-15.9
		c-0.7-3.9-1.7-5.6-3.7-6.8c-2.1-1.6-4.9-1.6-7-1.8l0-1l36.5-0.2c0.9,0,1.3,0.4,1.3,1.4c0,3.1-0.2,7.5-0.1,13l0.5,99.9
		c0,6,0.1,13.7,0.9,17.4c1.5,5.4,3.4,6.4,6.9,7.8c1.5,0.6,3.6,0.6,5.1,0.8l0,1L567.6,161.7z"/>
	<path d="M686,162c-0.2,0-0.9-0.4-0.9-1c0-0.4,0.2-5,0.2-5.6l-0.1-10.1l-0.2,0c-3.6,10.8-12.7,17.9-25.9,17.9
		c-19.8,0.1-38.5-14.1-38.6-46.1c-0.2-31.2,19.2-47.1,40.7-47.2c12.8-0.1,19.7,6.9,22.9,14.8l0.2,0l-0.2-42c0-3.1-0.1-10.3-0.5-13.2
		c-0.7-3.9-2.2-5.8-4.7-7.2c-2.1-1.2-4.9-1.4-6.6-1.6l0-0.8l37.8-0.2c0.4,0.2,1.1,0.4,1.1,1.2c0,7.9-0.5,33.5-0.4,44.1l0.4,73
		c0,3.7,0,9.3,0.5,12.6c0.4,3.7,2,6.4,4.7,8c2.1,1.4,6,1.6,7.7,1.8l0,0.8C720.3,161.2,687.3,162,686,162z M684.4,101.8
		c-0.1-9.7-2.2-15.9-5.7-20.7c-3-4.5-7.3-7.2-12.6-7.2c-10.9,0.1-17.6,16.8-17.5,43.3c0.1,27.1,6.6,41.1,16.8,41.1
		c10.9-0.1,19.1-10,19.1-28.4L684.4,101.8z"/>
	<path d="M897.5,100.3c-3.4,1.5-6.4,3.3-8.5,7.5c-1.5,2.9-2.3,7.7-2.3,17.4l0.2,30.2c-3.8,1.5-10.2,3.2-18.5,5.1
		c-8.1,1.5-19.6,2.8-29.2,2.8c-36.5,0.2-66.2-25.5-66.5-70.6c-0.2-45.3,30.6-70.7,66.2-70.9c20.5-0.1,36.1,9.1,40.6,14.7l0.6,0
		l4.9-8.5l1.3,0l0.2,48l-1.3,0c-3-12.6-7.2-23.3-12.7-31.8c-8-12-18.2-18.3-32.9-18.2c-6,0-16,3.4-21.3,8.8c-10,9.8-14.2,27-14,57.8
		c0.1,29.6,7.1,46.7,16.3,56.6c6,7.6,14.6,9.7,21,9.6c9.4,0,14.1-1.9,16.4-5.9c2.5-4.2,3.4-11.6,3.3-17.2l-0.1-9.7
		c0-9.1-0.9-14.1-3.3-18.2c-2.6-4.3-5.1-6-9.6-7.4c-1.9-0.6-4.3-1-6.2-1.2l0-1l62.1-0.3l0,1C902.8,99,899.2,99.7,897.5,100.3z"/>
	<path d="M965.3,95.2c-6.8,0-10-4.1-12-9.5c-1.5-4.1-2.4-5.8-4.7-5.8c-3.4,0-10.2,9.6-11.6,25.7c-0.2,1.7-0.4,7.7-0.4,12.8l0.1,16.6
		c0,5.2-0.2,10.8,0.7,14.3c1.1,5.4,3,7,6.9,8.7c1.5,0.6,3.6,0.8,5.6,1l0,0.8l-51.6,0.3l0-0.8c1.5-0.2,3.4-0.4,5.1-1.1
		c3.2-1.5,4.9-2.3,6.4-7.9c0.8-3.5,0.8-11.6,0.8-17.4l-0.2-37c0-3.7-0.1-12.4-0.5-15.7c-0.7-3.9-1.9-5.6-3.9-7
		c-1.9-1.4-4.9-1.4-6.8-1.6l0-1l36.3-0.2c0.9,0,1.3,0.6,1.3,1.2c0,1.2-0.1,19.7-0.1,21.7h0.2c2.5-9.9,7.6-16.8,11.2-19.7
		c3.4-2.7,8.1-5.2,14.5-5.2c3.6,0,9,1,11.5,3.7c2.4,2.1,3.4,5.4,3.5,10.9C977.4,90.4,972.3,95.1,965.3,95.2z"/>
	<path d="M1023.1,161.3c-23,0.1-46.6-17.1-46.7-46.5c-0.1-29.4,23.4-46.7,46.3-46.8c23-0.1,46.8,17.1,46.9,46.3
		C1069.7,143.5,1046.4,161.2,1023.1,161.3z M1034,74.6c-3.2-3.7-7.5-4.5-11.3-4.5c-3.6,0-7.9,1.3-10.9,4.4c-5.5,6-7.8,20.7-7.7,40.2
		c0.1,19.7,2.7,34.1,7.9,40.1c3.2,3.7,7.5,4.7,11.1,4.7c3.8,0,7.9-0.9,11.3-4.8c4.9-6,7.6-20.5,7.5-40.2
		C1041.8,95,1039.1,80.5,1034,74.6z"/>
	<path d="M1138.5,159.7c-0.2,0-0.6-0.2-0.6-0.6c-0.2-0.8-0.2-2.5-0.2-3.9l-0.1-14.5l-0.6,0c-2.5,6.8-4.9,10.6-9.3,14.3
		c-4.9,4.2-11.7,5.9-17.9,5.9c-7.7,0-16-1.4-21.2-6.9c-4.5-4.5-6.9-12.6-6.9-21.1l-0.2-38.3c0-4.6-0.1-12.2-0.7-15.3
		c-1.1-4.1-2.2-6-4.5-7.4c-1.9-1.2-5.1-1.2-7-1.4l0-0.8l37.1-0.2c0.9,0,1.5,0.2,1.5,1.6c0,2.5-0.1,14.1-0.1,24.4l0.2,41.8
		c0,6,1.1,10.8,3.3,13.6c2.1,2.9,5.4,3.9,9.2,3.9c7,0,14.9-9.2,16.3-24.3c0.4-5,0.6-8.1,0.6-14.3l-0.1-24.2c0-4.1,0-9.1-0.5-12.2
		c-0.7-4.1-1.7-6.6-4.3-8c-1.7-1.2-5.6-1.6-7.5-1.6l0-0.8l36.9-0.2c1.1,0,1.5,0.6,1.5,1.6c0,2.5-0.1,13.7-0.1,23.8l0.2,40.5
		c0,3.7,0.3,9.9,0.5,13.2c0.7,3.9,2,6.2,4.3,7.6c1.9,1.4,5.3,1.6,7.3,1.8l0,0.8C1173.3,158.7,1139.2,159.7,1138.5,159.7z"/>
	<path d="M1235.7,160.2c-10.2,0.1-16.9-2.2-22.6-7.1l-0.6,0l0.1,22.6c0,5.8-0.2,12.2,0.9,16.5c1.3,5.6,3,6.6,7.5,8.4
		c1.7,0.6,3,0.6,4.5,0.8l0,1l-51.6,0.3l0-1c1.5-0.2,2.8-0.2,4.5-0.9c4.5-1.9,6.2-2.9,7.4-8.5c1-4.3,0.8-10.8,0.8-16.6l-0.4-81.5
		c0-3.7-0.1-11-0.5-14.3c-0.4-3.7-1.5-5-3.9-7c-2.6-2.1-7.7-2.9-9.6-3.1l0-0.8l38-0.2c0.9,0,1.7,0.4,1.7,1.9l-0.1,13.2l1.1,0
		c4-10.6,15.1-17,24.9-17.1c21.3-0.1,38.7,14.9,38.8,46.6C1276.6,142.4,1259.2,160.1,1235.7,160.2z M1231.7,71.9
		c-11.1,0.1-19.6,13.1-19.5,29.9l0.1,25c0,8.9,2.4,19,6.3,23.3c3.9,4.3,7.9,6.8,13.7,6.8c10.9-0.1,16.4-11,16.2-44.1
		C1248.4,79.7,1242.6,71.9,1231.7,71.9z"/>
	<polygon points="444.8,162.4 445.3,162.4 445.3,162.4 	"/>
	<path d="M481,161.3c-1.5-0.2-3-0.2-4.7-0.8c-3.4-1.4-5.3-2.5-6.6-7.8c-0.9-2.9-1.1-9.5-1.1-14.5l-0.3-51.3c0-5.4,0.2-9.7,0.1-12.8
		c0-1-0.4-1.4-1.3-1.4l-56.7,0.3l-0.1-26.5c0-8.3,1.4-14.5,4-18.4c2.8-4.6,8.1-6.2,14.9-6.3c4.5,0,9,1.2,10,4.5
		c1.1,3.3,1.7,8.1,3,12.4c1.5,6.4,5.8,10.1,12.2,10.1c7.3,0,11.7-5,11.7-11c-0.1-14.3-18-18.5-36.8-18.4
		c-13.7,0.1-23.7,3.8-30.5,8.8c-8.3,5.8-14.9,16-14.8,33.2l0.1,11.8l-11.9,0.1l0,3.7l12.2,0.8l0.3,57.9c0,5.8,0.1,13.9-1,17.6
		c-1.3,5.4-3.2,6.2-6.6,7.7c-1.7,0.6-3.4,0.8-4.9,1.1l0,0.8l28.4-0.1h10.1l-0.3-83.1l34.9,11.1v71.8l35.7-0.2L481,161.3z"/>
	<path d="M430.6,109c-3.2,0-5.7,2.6-5.7,5.9c0,3.2,2.6,5.9,5.7,5.9s5.7-2.6,5.7-5.9C436.4,111.7,433.8,109,430.6,109z"/>
	<polyline class="st2" points="409.8,161.5 444.7,172.5 444.7,84.7 	"/>
</g>
</svg>
